<svg width="100%" height="100%" viewBox="0 0 100 24" version="1.1" xmlns="http://www.w3.org/2000/svg" xmlns:xlink="http://www.w3.org/1999/xlink" xml:space="preserve" xmlns:serif="http://www.serif.com/" style="fill-rule:evenodd;clip-rule:evenodd;stroke-linejoin:round;stroke-miterlimit:2;"><g><text x="41.364px" y="22.227px" style="font-family:'Arial-BoldMT', 'Arial', sans-serif;font-weight:700;font-size:10.393px;fill:#999;">ENGINE</text></g><g><text x="33.915px" y="13.775px" style="font-family:'Arial-BoldMT', 'Arial', sans-serif;font-weight:700;font-size:16.359px;fill:#999;">REDOT</text></g><path id="Symbol" d="M13.876,0.331l-0.569,1.797c-0.62,0.268 -1.239,0.536 -1.859,0.804c-0.657,-0.139 -1.316,-0.299 -1.982,-0.379c-0.105,0.118 -2.766,4.209 -2.765,4.252c0.123,0.3 0.333,0.558 0.492,0.839l9.677,3.398l9.677,-3.398c0.159,-0.281 0.37,-0.539 0.492,-0.839c0,-0.043 -2.659,-4.134 -2.765,-4.252c-0.666,0.08 -1.325,0.24 -1.982,0.379c-0.619,-0.268 -1.239,-0.536 -1.859,-0.804l-0.568,-1.797l-5.989,0Zm-5.945,8.549c-0.012,-0.005 -0.036,0.014 -0.036,0.02c-0.116,0.95 -0.345,2.852 -0.345,2.852l0.59,2.548l4.461,2.027l4.27,-1.597l4.271,1.597l4.461,-2.027l0.589,-2.548c0,-0 -0.227,-1.902 -0.344,-2.852c0,-0.008 -0.043,-0.037 -0.043,-0.008c-2.92,1.038 -5.966,2.043 -8.933,3.067c-2.967,-1.024 -6.013,-2.029 -8.933,-3.067c-0,-0.007 -0,-0.011 -0.012,-0.012l0.004,-0Zm2.096,2.164l4.176,1.542c-0.022,0.151 -0.058,0.299 -0.109,0.443c-0.329,0.891 -1.184,1.486 -2.134,1.486c-0.269,-0 -0.535,-0.048 -0.788,-0.141c-0.891,-0.329 -1.486,-1.183 -1.486,-2.133c-0,-0.269 0.047,-0.535 0.141,-0.787c0.052,-0.143 0.119,-0.28 0.2,-0.41l-0,0Zm13.687,0c0.08,0.13 0.147,0.267 0.2,0.41c0.093,0.252 0.141,0.518 0.141,0.787c-0,0.95 -0.596,1.804 -1.487,2.133c-0.252,0.093 -0.519,0.141 -0.788,0.141c-0.95,-0 -1.804,-0.595 -2.133,-1.486c-0.051,-0.144 -0.088,-0.292 -0.109,-0.443l4.176,-1.542Zm-16.937,1.72l-1.071,1.062l1.605,5.625l5.072,2.08l-0.273,-4.376l-4.81,-2.238l-0.523,-2.153Zm20.186,0l-0.523,2.153l-4.81,2.238l-0.273,4.376l5.072,-2.08l1.605,-5.625l-1.071,-1.062Zm-10.093,2.898l-3.803,1.505l0.231,4.727l3.572,1.456l3.573,-1.456l0.231,-4.727l-3.804,-1.505Z" style="fill:url(#_Linear1);fill-rule:nonzero;"/><defs><linearGradient id="_Linear1" x1="0" y1="0" x2="1" y2="0" gradientUnits="userSpaceOnUse" gradientTransform="matrix(17.1338,17.4518,-17.4518,17.1338,8.8046,2.20079)"><stop offset="0" style="stop-color:#ff1300;stop-opacity:1"/><stop offset="1" style="stop-color:#ff6e01;stop-opacity:1"/></linearGradient></defs></svg>