<?xml version="1.0" encoding="UTF-8" standalone="no"?>
<!DOCTYPE svg PUBLIC "-//W3C//DTD SVG 1.1//EN" "http://www.w3.org/Graphics/SVG/1.1/DTD/svg11.dtd">
<svg width="100%" height="100%" viewBox="0 0 100 24" version="1.1" xmlns="http://www.w3.org/2000/svg" xmlns:xlink="http://www.w3.org/1999/xlink" xml:space="preserve" xmlns:serif="http://www.serif.com/" style="fill-rule:evenodd;clip-rule:evenodd;stroke-linejoin:round;stroke-miterlimit:2;">
    <g transform="matrix(1,0,0,1,41.364,22.227)">
        <text x="0px" y="0px" style="font-family:'Arial-BoldMT', 'Arial', sans-serif;font-weight:700;font-size:10.393px;fill:rgb(153,153,153);">ENGINE</text>
    </g>
    <g transform="matrix(1,0,0,1,33.915,13.775)">
        <text x="0px" y="0px" style="font-family:'Arial-BoldMT', 'Arial', sans-serif;font-weight:700;font-size:16.359px;fill:rgb(153,153,153);">REDOT</text>
    </g>
    <g id="Symbol" transform="matrix(0.0686184,0,0,0.0686184,2.34167,-2.72064)">
        <path d="M168.091,44.474L159.802,70.659C150.773,74.564 141.746,78.467 132.717,82.374C123.139,80.357 113.534,78.021 103.827,76.85C102.291,78.575 63.523,138.198 63.533,138.814C65.32,143.188 68.387,146.95 70.707,151.043L211.731,200.574L352.752,151.043C355.073,146.95 358.142,143.188 359.927,138.814C359.927,138.198 321.166,78.575 319.631,76.85C309.924,78.022 300.321,80.357 290.742,82.374C281.715,78.467 272.685,74.564 263.658,70.659L255.367,44.474L168.091,44.474ZM81.449,169.058C81.275,168.994 80.926,169.263 80.926,169.352C79.234,183.201 75.908,210.908 75.908,210.908L84.501,248.051L149.508,277.583L211.746,254.31L273.987,277.583L338.994,248.051L347.586,210.908C347.586,210.908 344.268,183.201 342.569,169.352C342.569,169.238 341.941,168.807 341.941,169.238C299.386,184.364 254.994,199.013 211.757,213.933C168.518,199.013 124.126,184.364 81.57,169.238C81.57,169.136 81.57,169.075 81.395,169.056L81.449,169.058ZM111.999,200.603L172.854,223.067C172.542,225.267 172.01,227.429 171.266,229.523C166.47,242.507 154.019,251.181 140.174,251.181C136.256,251.181 132.368,250.486 128.692,249.129C115.704,244.335 107.028,231.887 107.028,218.045C107.028,214.128 107.723,210.242 109.08,206.567C109.85,204.486 110.827,202.488 111.997,200.603L111.999,200.603ZM311.461,200.603C312.63,202.488 313.608,204.486 314.378,206.567C315.735,210.242 316.43,214.128 316.43,218.045C316.43,231.887 307.754,244.335 294.766,249.129C291.09,250.486 287.202,251.181 283.284,251.181C269.438,251.181 256.987,242.507 252.192,229.523C251.447,227.429 250.916,225.267 250.604,223.067L311.461,200.603ZM64.644,225.67L49.035,241.135L72.422,323.119L146.336,353.43L142.36,289.653L72.262,257.042L64.644,225.67ZM358.815,225.67L351.198,257.042L281.101,289.653L277.123,353.43L351.039,323.119L374.427,241.135L358.815,225.67ZM211.731,267.898L156.302,289.829L159.666,358.724L211.729,379.93L263.792,358.724L267.158,289.829L211.731,267.898Z" style="fill:url(#_Linear1);fill-rule:nonzero;"/>
    </g>
    <defs>
        <linearGradient id="_Linear1" x1="0" y1="0" x2="1" y2="0" gradientUnits="userSpaceOnUse" gradientTransform="matrix(249.697,254.331,-254.331,249.697,94.1866,71.7217)"><stop offset="0" style="stop-color:rgb(255,19,0);stop-opacity:1"/><stop offset="1" style="stop-color:rgb(255,110,1);stop-opacity:1"/></linearGradient>
    </defs>
</svg>
