<?xml version="1.0" encoding="UTF-8" standalone="no"?>
<svg
   xml:space="preserve"
   fill-rule="evenodd"
   stroke-linejoin="round"
   stroke-miterlimit="2"
   clip-rule="evenodd"
   viewBox="0 0 10000 576"
   version="1.1"
   id="svg3"
   width="10000"
   height="576"
   xmlns="http://www.w3.org/2000/svg"
   xmlns:svg="http://www.w3.org/2000/svg"><text
     x="41.363998"
     y="22.226999"
     fill="#999999"
     font-family="Arial-BoldMT, Arial, sans-serif"
     font-size="10.393px"
     font-weight="700"
     id="text1">ENGINE</text><text
     x="33.915001"
     y="13.775"
     fill="#999999"
     font-family="Arial-BoldMT, Arial, sans-serif"
     font-size="16.359px"
     font-weight="700"
     id="text2">REDOT</text><path
     fill="url(#a)"
     fill-rule="nonzero"
     d="M 13.876,0.331 13.307,2.128 11.448,2.932 C 10.791,2.793 10.132,2.633 9.466,2.553 9.361,2.671 6.7,6.762 6.701,6.805 c 0.123,0.3 0.333,0.558 0.492,0.839 l 9.677,3.398 9.677,-3.398 c 0.159,-0.281 0.37,-0.539 0.492,-0.839 0,-0.043 -2.659,-4.134 -2.765,-4.252 -0.666,0.08 -1.325,0.24 -1.982,0.379 L 20.433,2.128 19.865,0.331 Z M 7.931,8.88 C 7.919,8.875 7.895,8.894 7.895,8.9 7.779,9.85 7.55,11.752 7.55,11.752 l 0.59,2.548 4.461,2.027 4.27,-1.597 4.271,1.597 4.461,-2.027 0.589,-2.548 c 0,0 -0.227,-1.902 -0.344,-2.852 0,-0.008 -0.043,-0.037 -0.043,-0.008 -2.92,1.038 -5.966,2.043 -8.933,3.067 -2.967,-1.024 -6.013,-2.029 -8.933,-3.067 0,-0.007 0,-0.011 -0.012,-0.012 z m 2.096,2.164 4.176,1.542 a 2.331,2.331 0 0 1 -0.109,0.443 2.28,2.28 0 0 1 -2.922,1.345 2.278,2.278 0 0 1 -1.145,-3.33 z m 13.687,0 a 2.272,2.272 0 0 1 -1.934,3.471 c -0.95,0 -1.804,-0.595 -2.133,-1.486 a 2.258,2.258 0 0 1 -0.109,-0.443 z m -16.937,1.72 -1.071,1.062 1.605,5.625 5.072,2.08 L 12.11,17.155 7.3,14.917 Z m 20.186,0 -0.523,2.153 -4.81,2.238 -0.273,4.376 5.072,-2.08 1.605,-5.625 z m -10.093,2.898 -3.803,1.505 0.231,4.727 3.572,1.456 3.573,-1.456 0.231,-4.727 z"
     id="path2"
     style="fill:url(#a)" /><defs
     id="defs3"><linearGradient
       id="a"
       x1="0"
       x2="1"
       y1="0"
       y2="0"
       gradientTransform="matrix(17.133706,17.451828,-17.451828,17.133706,8.8063041,2.1972154)"
       gradientUnits="userSpaceOnUse"><stop
         offset="0"
         stop-color="#ff1300"
         id="stop2" /><stop
         offset="1"
         stop-color="#ff6e01"
         id="stop3" /></linearGradient></defs></svg>
